# xmcd
#
# Track frame offsets:
#	150
#	15615
#	31932
#	47227
#	68857
#	83882
#	100502
#	111155
#	129427
#	142587
#	159657
#	180570
#	194577
#	205172
#	223872
#	239085
#	257120
#	275402
#
# Disc length: 3922 seconds
#
# Revision: 4
# Processed by: cddbd v1.5.1PL0 Copyright (c) Steve Scherf et al.
# Submitted via: dBpowerAMP V4.0
#
DISCID=030f5012
DTITLE=Various Artist - New Country 7
DYEAR=2000
DGENRE=Country
TTITLE0=Toby Keith - How Do You Like Me Now
TTITLE1=Jo Dee Messina - Lesson In Leavin'
TTITLE2=Chad Brock - Yes!
TTITLE3=Dixie Chicks - Cowboy Take Me Away
TTITLE4=Steve Wariner - I'm Already Taken
TTITLE5=SHeDAISY - I Will... But
TTITLE6=Dwight Yoakam - Crazy Little Thing Called Love
TTITLE7=Vince Gill - Let's Make Sure We Kiss Goodbye
TTITLE8=Tara Lyn Hart - Save Me
TTITLE9=The Wilkinsons - Shame On Me
TTITLE10=Paul Brandt - That's The Truth
TTITLE11=Trace Adkins - More
TTITLE12=Chris Cummings - No One Hurts Me
TTITLE13=Keith Urban - Your Everything
TTITLE14=Amanda Stott - Black Is Black
TTITLE15=Clay Davidson - Unconditional
TTITLE16=Clay Walker - The Chain of Love
TTITLE17=Chad Brock and Shirley Myers - No One
EXTD=Submitted by
EXTT0=
EXTT1=
EXTT2=
EXTT3=
EXTT4=
EXTT5=
EXTT6=
EXTT7=
EXTT8=
EXTT9=
EXTT10=
EXTT11=
EXTT12=
EXTT13=
EXTT14=
EXTT15=
EXTT16=
EXTT17=
PLAYORDER=
